# xmcd CD database file
#
# Track frame offsets:
#	150
#	25315
#	42892
#	61532
#	75690
#	97420
#	114873
#	144653
#	168285
#	188525
#	206618
#	238285
#	256120
#	272820
#	291380
#
# Disc length: 4238 seconds
#
# Revision: 1
# Processed by: cddbd v1.5.2PL0 Copyright (c) Steve Scherf et al.
# Submitted via: CDex 1.51
#
DISCID=d3108c0f
DTITLE=New Order - (The Other Best Of) New Order [BRETTCD003]
DYEAR=1999
DGENRE=New Age
TTITLE0=True Faith '94
TTITLE1=Bizarre Love Triangle '94
TTITLE2=Regret
TTITLE3=Fine Time
TTITLE4=The Perfect Kiss
TTITLE5=Paradise
TTITLE6=Thieves Like Us
TTITLE7=Vanishing Point
TTITLE8=Run 2
TTITLE9=Round and Round '94
TTITLE10=Temptation
TTITLE11=Ruined In A Day
TTITLE12=Touched By The Hand Of God
TTITLE13=Blue Monday '88
TTITLE14=True Faith [Live Reading 1998]
EXTD=YEAR: 1999
EXTT0=
EXTT1=
EXTT2=
EXTT3=
EXTT4=
EXTT5=
EXTT6=
EXTT7=
EXTT8=
EXTT9=
EXTT10=
EXTT11=
EXTT12=
EXTT13=
EXTT14=
PLAYORDER=
